<?xml version="1.0" encoding="UTF-8" standalone="no"?>
<!-- Created with Inkscape (http://www.inkscape.org/) -->

<svg
   xmlns:dc="http://purl.org/dc/elements/1.1/"
   xmlns:cc="http://creativecommons.org/ns#"
   xmlns:rdf="http://www.w3.org/1999/02/22-rdf-syntax-ns#"
   xmlns:svg="http://www.w3.org/2000/svg"
   xmlns="http://www.w3.org/2000/svg"
   xmlns:sodipodi="http://sodipodi.sourceforge.net/DTD/sodipodi-0.dtd"
   xmlns:inkscape="http://www.inkscape.org/namespaces/inkscape"
   width="77.045235mm"
   height="51.028267mm"
   viewBox="0 0 77.045235 51.028267"
   version="1.1"
   id="svg8"
   sodipodi:docname="routerSmall.svg"
   inkscape:version="0.92.5 (2060ec1f9f, 2020-04-08)">
  <defs
     id="defs2" />
  <sodipodi:namedview
     id="base"
     pagecolor="#ffffff"
     bordercolor="#666666"
     borderopacity="1.0"
     inkscape:pageopacity="0.0"
     inkscape:pageshadow="2"
     inkscape:zoom="1.1621094"
     inkscape:cx="95.952897"
     inkscape:cy="90.478516"
     inkscape:document-units="mm"
     inkscape:current-layer="layer1"
     showgrid="false"
     inkscape:window-width="2504"
     inkscape:window-height="1013"
     inkscape:window-x="56"
     inkscape:window-y="27"
     inkscape:window-maximized="1"
     fit-margin-top="0"
     fit-margin-left="0"
     fit-margin-right="0"
     fit-margin-bottom="0" />
  <metadata
     id="metadata5">
    <rdf:RDF>
      <cc:Work
         rdf:about="">
        <dc:format>image/svg+xml</dc:format>
        <dc:type
           rdf:resource="http://purl.org/dc/dcmitype/StillImage" />
        <dc:title></dc:title>
      </cc:Work>
    </rdf:RDF>
  </metadata>
  <g
     inkscape:label="Layer 1"
     inkscape:groupmode="layer"
     id="layer1"
     transform="translate(-49.448515,-205.00475)">
    <ellipse
       style="fill:#ffffff;fill-opacity:1;stroke-width:0.44594046"
       id="path248"
       cx="87.986526"
       cy="221.96207"
       rx="38.507221"
       ry="15.287766" />
    <g
       id="g228"
       transform="translate(7.9605871,26.139595)">
      <path
         style="fill:#d6e6ed;stroke-width:0.26458332"
         d="m 72.865579,229.77017 c -0.582083,-0.0566 -2.368021,-0.22953 -3.96875,-0.38422 -8.523685,-0.82369 -17.987894,-3.76182 -22.447802,-6.96882 -2.07227,-1.49012 -3.403743,-2.88838 -4.186363,-4.39635 -0.610682,-1.17668 -0.618836,-1.30673 -0.696326,-11.105 l -0.07841,-9.91436 1.501917,1.65967 c 5.111967,5.6489 16.202399,9.24989 31.243795,10.14464 5.854464,0.34826 13.976773,0.0419 18.958044,-0.71511 11.038236,-1.67746 20.516056,-5.63853 23.527856,-9.83301 l 0.86062,-1.19858 0.0694,9.72229 0.0694,9.72229 -0.63024,1.35389 c -0.76825,1.65039 -2.56164,3.54209 -4.58517,4.83652 -4.78021,3.05787 -12.648872,5.53463 -20.984938,6.60527 -2.874682,0.36921 -16.232121,0.7064 -18.653125,0.47088 z m 1.655601,-21.8209 c -14.671785,-0.75915 -26.892722,-4.80549 -31.317322,-10.36912 -6.32909,-7.9584 6.634091,-16.53085 27.94193,-18.47777 4.990613,-0.456 17.211754,-0.1667 21.563541,0.51045 19.482541,3.03153 29.337161,10.74731 23.257531,18.20974 -3.45447,4.24018 -13.03446,8.06755 -23.689333,9.46428 -2.598754,0.34066 -12.782836,1.01638 -13.591114,0.90177 -0.145521,-0.0206 -2.019877,-0.12834 -4.165233,-0.23935 z m -3.243101,-3.25813 4.7625,-0.86523 -1.422532,-0.47557 -1.422532,-0.47557 2.348574,-2.16456 c 1.291717,-1.1905 2.816923,-2.58829 3.389352,-3.1062 l 1.040781,-0.94165 -2.363698,-0.43383 c -1.300033,-0.23861 -2.583098,-0.43359 -2.851258,-0.43329 -0.268158,2.6e-4 -1.853534,1.26044 -3.523052,2.80032 -2.058799,1.89894 -3.168573,2.74872 -3.449108,2.64107 -0.915269,-0.35123 -2.755617,-0.73766 -2.88705,-0.60623 -0.07702,0.077 -0.0566,1.27678 0.04538,2.66613 l 0.185426,2.52608 0.692357,-0.13311 c 0.380797,-0.0732 2.835482,-0.52248 5.454857,-0.99836 z m 38.996321,-6.095 1.91535,-1.43297 -1.40584,-0.28164 c -0.77321,-0.15491 -4.56099,-0.82513 -8.41729,-1.48939 -3.856301,-0.66426 -7.173422,-1.26321 -7.371378,-1.33099 -0.268121,-0.0918 -0.174654,-0.36615 0.366437,-1.07556 0.611524,-0.80175 0.647513,-0.93018 0.227629,-0.81234 -0.274301,0.077 -2.612088,0.63637 -5.195083,1.24308 -2.582995,0.60672 -4.692817,1.18193 -4.688493,1.27826 0.0043,0.0963 0.516744,1.09323 1.138716,2.21532 l 1.130853,2.04018 1.044096,-1.01819 1.044099,-1.0182 8.598958,1.53447 c 4.729426,0.84396 8.845926,1.54492 9.147776,1.5577 0.30185,0.0128 1.41072,-0.62159 2.46417,-1.40973 z M 68.220374,193.5386 c 2.392844,-0.51338 4.618572,-1.00067 4.94606,-1.08286 0.572485,-0.14368 0.538369,-0.2352 -0.885102,-2.37419 l -1.48054,-2.22475 -0.938162,0.71558 c -0.51599,0.39356 -1.194401,0.69436 -1.50758,0.66844 -0.313177,-0.0259 -4.33812,-0.70918 -8.944314,-1.51837 l -8.374899,-1.47124 -2.137221,1.65664 c -1.760057,1.3643 -2.05174,1.6904 -1.652837,1.84792 0.266411,0.10519 4.234852,0.81427 8.818759,1.57574 4.583906,0.76146 8.391117,1.42971 8.460468,1.48501 0.06935,0.0553 -0.347367,0.51148 -0.926041,1.01374 -0.932829,0.80965 -0.97713,0.89781 -0.390677,0.77748 0.363802,-0.0747 2.61924,-0.55577 5.012086,-1.06914 z m 19.991039,-4.89056 c 3.110994,-2.82353 2.784723,-2.68399 5.186315,-2.21803 0.785262,0.15236 0.814527,0.12666 0.677944,-0.59531 -0.07851,-0.415 -0.216146,-1.42221 -0.305858,-2.23825 l -0.163111,-1.4837 -4.90734,1.27218 c -2.699039,0.69969 -5.222666,1.38772 -5.608064,1.52895 -0.692777,0.25388 -0.690221,0.25732 0.225322,0.30405 2.477799,0.12646 2.460932,0.21916 -0.477427,2.62401 -1.487723,1.2176 -2.643643,2.27513 -2.56871,2.35006 0.110061,0.11006 1.443619,0.40188 4.89822,1.07187 0.07276,0.0141 1.441979,-1.16301 3.042709,-2.61583 z"
         id="path246"
         inkscape:connector-curvature="0" />
      <path
         style="fill:#abccdc;stroke-width:0.26458332"
         d="m 73.527038,229.75088 c -9.575679,-0.67315 -17.204912,-2.39749 -23.225079,-5.24927 -4.164829,-1.9729 -6.724314,-4.05418 -8.060276,-6.55433 -0.576138,-1.0782 -0.599771,-1.39831 -0.678278,-9.18692 -0.04474,-4.43839 -0.04474,-8.88475 0,-9.88082 l 0.08134,-1.81102 0.919301,1.22937 c 3.296533,4.4084 12.749874,8.30007 24.083824,9.91462 7.681584,1.09426 18.948403,1.03963 26.808046,-0.12999 11.044134,-1.64352 20.627174,-5.74558 23.582374,-10.09454 l 0.67416,-0.99212 -0.006,9.78485 c -0.005,9.04539 -0.0439,9.86864 -0.50916,10.89354 -2.33063,5.1335 -12.01151,9.62821 -24.620444,11.43095 -4.719121,0.67472 -14.10947,0.99299 -19.05,0.64568 z m -2.645834,-22.06023 c -12.505705,-1.17366 -22.748052,-4.79026 -27.178615,-9.59686 -4.968774,-5.39048 -0.708875,-11.60896 10.648355,-15.54417 7.130742,-2.47076 15.389597,-3.67918 25.180953,-3.68445 12.433165,-0.007 22.309283,1.85585 30.110763,5.67857 8.1672,4.00193 10.26942,9.27522 5.57075,13.97388 -1.68726,1.68727 -3.14887,2.66072 -6.07917,4.04882 -4.64667,2.20115 -10.871986,3.90761 -17.350952,4.75619 -3.861769,0.50579 -16.974127,0.73666 -20.902084,0.36802 z m 0.661459,-2.99812 4.7625,-0.86662 -1.402533,-0.46893 c -0.771392,-0.25791 -1.366705,-0.55265 -1.322916,-0.65497 0.04379,-0.10233 1.481949,-1.47646 3.195912,-3.05363 1.713966,-1.57717 3.070387,-2.91349 3.014271,-2.9696 -0.05611,-0.0561 -1.275397,-0.32418 -2.709513,-0.59571 l -2.607487,-0.49367 -3.147748,2.85435 -3.147751,2.85435 -1.739618,-0.49749 c -0.95679,-0.27362 -1.750459,-0.46984 -1.763709,-0.43606 -0.01325,0.0338 0.08123,1.28479 0.209944,2.77999 l 0.234034,2.71856 0.831057,-0.15197 c 0.457081,-0.0836 2.974182,-0.54195 5.593557,-1.0186 z m 38.774557,-6.05165 c 1.51565,-1.13423 1.76887,-1.42366 1.384,-1.58194 -0.25908,-0.10655 -3.9834,-0.79785 -8.27627,-1.53623 -4.29286,-0.73838 -8.016588,-1.4047 -8.274948,-1.48072 -0.424053,-0.12478 -0.403696,-0.21671 0.209312,-0.94523 0.373481,-0.44386 0.630666,-0.8554 0.571526,-0.91454 -0.09633,-0.0963 -10.251199,2.21258 -10.386401,2.36155 -0.05217,0.0575 2.219404,4.15949 2.44203,4.40981 0.0563,0.0633 0.575519,-0.34692 1.153819,-0.91161 l 1.051454,-1.02672 8.402542,1.48181 c 4.621396,0.815 8.732246,1.49312 9.135206,1.50693 0.49688,0.017 1.32966,-0.42164 2.58773,-1.36311 z m -42.441791,-4.97097 c 2.744584,-0.58714 5.194742,-1.12975 5.444802,-1.2058 0.382614,-0.11636 0.218689,-0.49283 -1.034629,-2.37614 -1.432605,-2.15272 -1.510316,-2.22247 -2.042149,-1.83287 -1.471698,1.07808 -1.300218,1.08653 -10.468988,-0.51615 l -8.728635,-1.52576 -2.22147,1.68244 c -1.700008,1.28751 -2.120218,1.72574 -1.790126,1.86692 0.23724,0.10146 4.181814,0.80615 8.76572,1.56596 4.583907,0.75981 8.42273,1.45571 8.530718,1.54644 0.107989,0.0907 -0.300608,0.54691 -0.907993,1.01373 -0.607385,0.46682 -0.976775,0.84876 -0.820868,0.84876 0.155907,0 2.529035,-0.48038 5.273618,-1.06753 z m 20.388197,-4.992 2.877865,-2.61995 1.406405,0.25562 c 0.773523,0.1406 1.458868,0.20316 1.52299,0.13904 0.122915,-0.12291 -0.325462,-4.13106 -0.478642,-4.27868 -0.08834,-0.0851 -10.306095,2.53535 -11.069373,2.83889 -0.219072,0.0871 0.01799,0.18122 0.529167,0.21003 0.509323,0.0287 1.272325,0.1274 1.695561,0.21933 0.751956,0.16331 0.70477,0.21976 -2.06715,2.47302 -2.50135,2.03331 -2.764335,2.32322 -2.224731,2.45255 0.810755,0.19431 4.233167,0.86 4.623076,0.89922 0.16883,0.017 1.602004,-1.1481 3.184832,-2.58907 z"
         id="path244"
         inkscape:connector-curvature="0" />
      <path
         style="fill:#8ab8ce;stroke-width:0.26458332"
         d="m 74.320788,229.773 c -0.654844,-0.056 -2.678907,-0.22846 -4.497917,-0.38321 -11.718149,-0.99691 -23.120823,-5.31928 -26.624703,-10.09252 -1.591522,-2.16809 -1.686743,-2.91598 -1.677332,-13.17426 l 0.0084,-9.13661 0.572604,0.79375 c 4.106091,5.69191 15.747491,9.94586 30.102299,10.99983 8.439161,0.61963 18.774675,0.0258 25.835046,-1.48436 9.096865,-1.94574 16.887355,-5.80886 19.189235,-9.51547 0.48549,-0.78177 0.49187,-0.64395 0.42235,9.12813 -0.0698,9.81367 -0.0773,9.93485 -0.68851,11.1125 -2.73194,5.264 -13.06201,9.69737 -26.237288,11.26029 -3.188708,0.37826 -13.957636,0.7012 -16.404166,0.49193 z M 71.410371,207.69138 C 60.074,206.7171 49.887248,203.48259 44.996753,199.30451 c -4.522126,-3.86337 -4.393199,-8.14522 0.36339,-12.06867 11.696435,-9.64777 45.727293,-11.29838 63.521587,-3.08101 5.36746,2.47868 8.83072,6.11018 8.83072,9.2597 0,2.22683 -2.05788,5.1274 -5.10664,7.19778 -4.44274,3.017 -12.40783,5.54514 -21.087106,6.69309 -3.902233,0.51613 -15.91174,0.74665 -20.108333,0.38598 z m -0.02238,-2.92703 c 3.262043,-0.57927 4.704906,-0.93349 4.365625,-1.07176 -0.278728,-0.11359 -0.91068,-0.36276 -1.404342,-0.55371 l -0.89757,-0.34718 3.336639,-3.10109 c 1.835143,-1.70559 3.310375,-3.10108 3.278286,-3.10108 -0.03209,0 -1.297125,-0.23605 -2.811193,-0.52455 l -2.752846,-0.52455 -1.97008,1.78132 c -4.557607,4.12093 -4.185343,3.88412 -5.5768,3.54759 -0.678633,-0.16413 -1.51504,-0.37815 -1.858683,-0.4756 -0.573201,-0.16255 -0.612751,-0.11391 -0.478836,0.58899 0.08028,0.42139 0.22396,1.70152 0.319279,2.84473 0.173065,2.07564 0.174289,2.07836 0.87571,1.94034 0.386322,-0.076 2.894982,-0.52757 5.574803,-1.00345 z m 40.581689,-7.65645 c -0.11569,-0.10634 -3.87003,-0.82408 -8.34299,-1.59498 -4.472948,-0.7709 -8.271034,-1.48717 -8.440182,-1.59171 -0.216665,-0.1339 -0.133845,-0.41089 0.280276,-0.93736 0.323302,-0.41101 0.48138,-0.78277 0.351287,-0.82614 -0.130093,-0.0434 -2.251996,0.40004 -4.715341,0.98533 -2.463342,0.5853 -4.749146,1.12683 -5.07956,1.2034 -0.59784,0.13856 -0.595913,0.14786 0.397332,1.91876 1.792269,3.19551 1.47732,2.98255 2.679981,1.81216 l 1.053994,-1.02571 9.08264,1.57326 9.082633,1.57327 1.93013,-1.44847 c 1.06158,-0.79665 1.83548,-1.53547 1.7198,-1.64181 z m -42.675972,-3.70557 c 2.255573,-0.47287 4.188376,-0.93547 4.295119,-1.02797 0.188275,-0.16317 -2.570498,-4.51608 -2.862183,-4.51608 -0.07993,0 -0.562229,0.31798 -1.071774,0.70663 l -0.926452,0.70664 -8.524258,-1.50039 c -4.688343,-0.82521 -8.709426,-1.50038 -8.935741,-1.50038 -0.615415,0 -4.871003,3.40582 -4.433464,3.54818 0.201325,0.0655 3.997451,0.72464 8.435837,1.46475 4.438385,0.74012 8.350258,1.40868 8.693051,1.48571 0.588068,0.13214 0.554455,0.19366 -0.595312,1.08943 -0.670215,0.52216 -1.218573,0.98243 -1.218573,1.02282 0,0.0404 0.68461,-0.0825 1.521355,-0.27306 0.836744,-0.19057 3.366822,-0.73339 5.622395,-1.20628 z m 18.947723,-4.65202 2.751077,-2.54755 1.624375,0.18378 1.624377,0.18378 -0.170651,-1.24504 c -0.09386,-0.68476 -0.172474,-1.55583 -0.174701,-1.9357 -0.0083,-1.41844 -0.08418,-1.41717 -5.922733,0.0994 -3.031085,0.78731 -5.562367,1.48278 -5.625071,1.54549 -0.06271,0.0627 0.553062,0.19735 1.368373,0.29922 0.815308,0.10187 1.445831,0.28177 1.401161,0.39979 -0.04467,0.11801 -1.157155,1.09086 -2.472187,2.16189 -1.315032,1.07102 -2.422289,2.06637 -2.460575,2.21189 -0.06044,0.22976 3.424915,1.06872 4.813925,1.15876 0.282789,0.0183 1.659937,-1.05008 3.24263,-2.51568 z"
         id="path242"
         inkscape:connector-curvature="0" />
      <path
         style="fill:#75acc6;stroke-width:0.26458332"
         d="m 74.717663,229.77195 c -8.254185,-0.6212 -13.023496,-1.38727 -17.968655,-2.88622 -7.613087,-2.30763 -12.743165,-5.5288 -14.507558,-9.10927 -0.58045,-1.17791 -0.599058,-1.47215 -0.68312,-10.80204 -0.04753,-5.27513 0.0161,-9.59114 0.141391,-9.59114 0.125294,0 0.434683,0.35021 0.68753,0.77824 0.535758,0.90697 2.658524,2.73604 4.549162,3.91976 4.469065,2.79807 12.445257,5.24418 20.523954,6.29421 4.491921,0.58384 15.022324,0.79926 19.970604,0.40855 13.595909,-1.07353 24.283409,-4.7867 29.055989,-10.09495 l 1.22549,-1.36305 -0.002,9.22289 c -8e-4,5.46079 -0.11171,9.61977 -0.27171,10.19584 -1.59255,5.73423 -12.55472,10.86492 -26.714206,12.50325 -3.471883,0.40171 -13.339659,0.72469 -16.007291,0.52393 z m -2.778125,-22.07238 c -10.88609,-0.90078 -20.394549,-3.67329 -25.781773,-7.51754 -3.057498,-2.18178 -4.36474,-4.20818 -4.374917,-6.7817 -0.03578,-9.04752 21.794239,-15.97627 44.973356,-14.27434 16.025926,1.17671 28.588246,6.33886 30.542026,12.55043 0.80668,2.56465 0.0219,4.78829 -2.52067,7.14226 -4.45253,4.12226 -13.06275,7.20251 -23.788022,8.51001 -3.922083,0.47814 -15.119282,0.69613 -19.05,0.37088 z m -1.297509,-2.77458 c 2.823681,-0.50872 5.243108,-0.92544 5.376503,-0.92604 0.498956,-0.002 -0.188159,-0.4117 -1.354802,-0.80733 l -1.207138,-0.40937 3.304853,-3.03022 c 1.817669,-1.66662 3.267194,-3.0749 3.221164,-3.12951 -0.04603,-0.0546 -1.292553,-0.32039 -2.770052,-0.59061 l -2.686368,-0.4913 -1.133935,0.98748 c -0.623668,0.54311 -2.047973,1.81368 -3.165129,2.82349 l -2.03119,1.83602 -1.677355,-0.44695 c -0.922545,-0.24583 -1.757575,-0.44696 -1.855622,-0.44696 -0.09805,0 -0.114175,0.44649 -0.03584,0.99219 0.07833,0.5457 0.217338,1.79586 0.308899,2.77813 0.09156,0.98226 0.257726,1.78593 0.369259,1.78593 0.111533,0 2.513072,-0.41623 5.336753,-0.92495 z m 39.538161,-6.11856 c 1.08681,-0.818 1.97601,-1.56538 1.97601,-1.66086 0,-0.0955 -3.76149,-0.82519 -8.35888,-1.62158 -4.597391,-0.79641 -8.493569,-1.53103 -8.658174,-1.63251 -0.20483,-0.12627 -0.126013,-0.37678 0.249735,-0.79375 0.301959,-0.33508 0.621961,-0.73975 0.711116,-0.89925 0.128608,-0.23009 -4.962809,0.84646 -9.952938,2.10449 l -0.741439,0.18692 1.110705,2.042 c 0.610886,1.12311 1.212601,2.1553 1.337143,2.29376 0.137055,0.15237 0.631839,-0.14411 1.253422,-0.75107 l 1.02698,-1.00282 8.960646,1.58538 c 4.928354,0.87196 8.994174,1.59689 9.035154,1.61097 0.041,0.0141 0.96372,-0.64369 2.05052,-1.46168 z m -41.944819,-5.13682 c 2.983177,-0.62689 5.470649,-1.17595 5.527717,-1.22013 0.125836,-0.0974 -2.602399,-4.28618 -2.919208,-4.48198 -0.12328,-0.0762 -0.641189,0.17957 -1.150911,0.56835 l -0.926767,0.70688 -8.533644,-1.49038 c -4.693505,-0.81971 -8.726277,-1.4884 -8.961716,-1.48598 -0.398783,0.004 -4.519187,3.00599 -4.664974,3.39863 -0.03628,0.0977 3.773721,0.82164 8.466667,1.60873 4.692945,0.7871 8.702995,1.49271 8.911222,1.56803 0.2675,0.0968 0.03459,0.44308 -0.79375,1.1802 -0.64479,0.57379 -0.993751,0.98569 -0.775469,0.91535 0.218281,-0.0703 2.837656,-0.6408 5.820833,-1.2677 z m 20.010861,-4.91132 2.742459,-2.53957 1.613207,0.18723 1.613207,0.18724 -0.186793,-2.07944 c -0.102738,-1.14369 -0.27055,-2.17038 -0.372915,-2.28154 -0.153479,-0.16667 -11.339261,2.56961 -11.609599,2.83995 -0.04651,0.0465 0.637117,0.16832 1.519171,0.27069 0.882055,0.10237 1.598531,0.26374 1.59217,0.35859 -0.0063,0.0949 -1.195982,1.12496 -2.643605,2.28913 -1.447626,1.16416 -2.633046,2.18348 -2.634271,2.26514 -0.0021,0.14099 4.070056,0.94381 5.126246,1.01063 0.290598,0.0184 1.641261,-1.02692 3.240723,-2.50805 z"
         id="path240"
         inkscape:connector-curvature="0" />
      <path
         style="fill:#5297b7;stroke-width:0.26458332"
         d="m 73.628542,229.6497 c -13.042374,-0.74316 -24.517996,-4.34517 -29.353518,-9.21361 -2.548913,-2.56626 -2.497986,-2.29494 -2.497986,-13.30797 v -9.57551 l 0.930025,1.08653 c 3.509704,4.1003 12.090678,7.74627 21.956433,9.32907 4.715394,0.7565 9.166124,1.07445 15.08125,1.07735 8.930317,0.004 15.858231,-0.85196 22.606464,-2.79431 6.10272,-1.75654 10.59854,-4.06598 13.45787,-6.9131 l 1.93308,-1.92484 -0.081,9.70842 c -0.0792,9.49148 -0.0943,9.73339 -0.67793,10.82555 -1.8372,3.43818 -6.10794,6.19122 -13.23456,8.5314 -5.292466,1.73789 -11.100907,2.73249 -18.579966,3.18151 -4.77883,0.28691 -6.345803,0.28549 -11.540162,-0.0105 z m -1.224076,-21.95003 c -8.70839,-0.64518 -16.237517,-2.42953 -22.293053,-5.2833 -14.1957,-6.68996 -9.83216,-16.54932 9.413968,-21.27075 4.544696,-1.11489 9.061986,-1.74526 14.860372,-2.0737 22.537426,-1.27659 43.176277,5.57693 43.145067,14.32714 -0.007,2.07622 -0.83864,3.66002 -2.92361,5.57051 -4.24957,3.89397 -13.38765,7.10145 -23.760844,8.3401 -4.144216,0.49486 -14.165939,0.70679 -18.4419,0.39 z m -1.411115,-2.80083 c 2.921497,-0.5231 5.34902,-0.98695 5.394494,-1.03077 0.04548,-0.0438 -0.594834,-0.30551 -1.422908,-0.58153 l -1.505593,-0.50187 3.326805,-3.02893 c 2.019435,-1.83862 3.202466,-3.09371 3.010408,-3.19377 -0.174017,-0.0907 -1.424022,-0.36315 -2.777789,-0.60553 l -2.461393,-0.4407 -0.878625,0.73533 c -0.483243,0.40443 -1.905559,1.67258 -3.1607,2.81809 l -2.282076,2.08277 -1.708323,-0.42912 c -0.939578,-0.23601 -1.781719,-0.42912 -1.871424,-0.42912 -0.149897,0 -0.08516,0.90305 0.308234,4.29948 0.08006,0.69123 0.274156,1.25677 0.431321,1.25677 0.157166,0 2.676071,-0.42799 5.597569,-0.9511 z m 39.426289,-6.24551 2.09989,-1.63872 -8.67654,-1.51957 c -4.772104,-0.83577 -8.721986,-1.56502 -8.777522,-1.62056 -0.05554,-0.0555 0.195283,-0.50253 0.557379,-0.99332 0.757491,-1.02673 0.774216,-1.07433 0.327628,-0.93248 -0.181901,0.0578 -2.473854,0.59835 -5.093229,1.20126 -2.619375,0.60292 -4.921911,1.14754 -5.116748,1.21029 -0.258254,0.0832 -0.05259,0.66952 0.758957,2.16387 0.612262,1.12739 1.218335,2.16309 1.34683,2.30155 0.143301,0.15442 0.627713,-0.13307 1.252932,-0.74358 l 1.019307,-0.99533 8.836028,1.57496 c 4.859818,0.86622 8.955088,1.58742 9.100608,1.60265 0.14552,0.0152 1.20954,-0.70973 2.36448,-1.61102 z m -41.985832,-5.02047 c 2.946797,-0.62786 5.357813,-1.23248 5.357813,-1.3436 0,-0.35768 -2.7696,-4.41885 -3.017734,-4.42502 -0.131784,-0.003 -0.640154,0.29955 -1.129708,0.67295 l -0.890098,0.67891 -8.527584,-1.48492 c -4.690171,-0.81671 -8.666934,-1.53156 -8.837251,-1.58857 -0.287634,-0.0963 -4.633781,3.10456 -4.785835,3.52465 -0.03763,0.10397 3.712839,0.83066 8.334375,1.61487 4.621536,0.78422 8.630166,1.48462 8.908065,1.55645 0.432419,0.11176 0.337045,0.27936 -0.661458,1.16235 -0.753814,0.66661 -0.979453,0.98606 -0.637564,0.90262 0.291042,-0.071 2.940183,-0.64283 5.886979,-1.27069 z m 19.845711,-4.85457 c 2.83047,-2.61518 3.015813,-2.7002 4.922359,-2.25782 l 1.021715,0.23707 -0.188664,-2.2939 c -0.103767,-1.26165 -0.233095,-2.34049 -0.287398,-2.39743 -0.115311,-0.12092 -10.903093,2.60715 -11.486254,2.90469 -0.243276,0.12413 0.237273,0.27238 1.256771,0.38773 0.90786,0.10271 1.644595,0.26067 1.637184,0.35101 -0.0074,0.0903 -1.198036,1.11013 -2.645834,2.2662 -1.447797,1.15607 -2.63236,2.17956 -2.63236,2.27443 0,0.17967 3.873328,0.95491 5.027083,1.00616 0.489069,0.0217 1.368766,-0.62413 3.375398,-2.47814 z"
         id="path238"
         inkscape:connector-curvature="0" />
      <path
         style="fill:#3485ab;stroke-width:0.26458332"
         d="M 74.453079,229.65136 C 66.995438,229.26049 61.1091,228.24707 55.417188,226.37405 48.64536,224.14567 44.053917,221.16306 42.45451,217.95347 l -0.677472,-1.35951 v -9.5103 -9.5103 l 1.087157,1.23507 c 3.048011,3.46273 9.788441,6.63185 18.018922,8.4719 10.845873,2.42476 26.885963,2.42125 37.647046,-0.008 9.044127,-2.04187 15.767787,-5.44148 18.772867,-9.49192 0.34983,-0.47152 0.39351,0.44217 0.40101,8.38749 0.005,5.43795 -0.10344,9.43824 -0.2783,10.25356 -1.20169,5.60328 -11.32965,10.67976 -25.076424,12.56915 -2.74525,0.37732 -11.950131,0.98518 -13.530612,0.89352 -0.363802,-0.0211 -2.328333,-0.12573 -4.365625,-0.23251 z m -1.5875,-21.95353 c -9.359435,-0.68424 -17.173831,-2.54734 -23.260874,-5.54583 -8.69278,-4.28207 -10.296382,-10.08401 -4.126816,-14.9311 10.076692,-7.9167 35.459339,-10.69922 54.507482,-5.97527 18.954579,4.70075 23.260589,14.33944 9.392709,21.02491 -7.49665,3.614 -15.946287,5.3009 -27.773279,5.5447 -3.060321,0.0631 -6.992972,0.0102 -8.739222,-0.11741 z m -1.767461,-2.78591 c 2.852798,-0.51591 5.228645,-0.97976 5.279657,-1.03077 0.05101,-0.051 -0.58002,-0.31701 -1.402297,-0.5911 l -1.495047,-0.49835 3.333293,-3.01901 c 1.833311,-1.66046 3.242781,-3.10065 3.132158,-3.20042 -0.110625,-0.0998 -1.365533,-0.38647 -2.788687,-0.63711 -2.168419,-0.38189 -2.661277,-0.39857 -3.042708,-0.10294 -0.250336,0.19402 -1.676379,1.47127 -3.168986,2.83834 l -2.713829,2.48558 -1.536862,-0.43123 c -2.316827,-0.65006 -2.232544,-0.71703 -2.038074,1.6193 0.242066,2.90813 0.386973,3.50573 0.850078,3.50573 0.222419,0 2.738505,-0.4221 5.591304,-0.93802 z m 39.230952,-6.13958 c 1.14085,-0.83675 2.0782,-1.58857 2.083,-1.67073 0.005,-0.0821 -3.64482,-0.78297 -8.11027,-1.55739 -4.465434,-0.77441 -8.408253,-1.48538 -8.76181,-1.57994 l -0.642834,-0.17192 0.724947,-0.86155 c 0.39872,-0.47385 0.67812,-0.90838 0.620885,-0.96561 -0.139928,-0.13993 -10.357324,2.26193 -10.618288,2.4961 -0.113006,0.1014 0.369094,1.21295 1.071328,2.47011 l 1.276791,2.28574 1.048362,-1.04836 1.048358,-1.04836 8.728229,1.55507 c 4.800522,0.85529 8.892212,1.56927 9.092632,1.58663 0.20042,0.0174 1.29782,-0.65305 2.43867,-1.48979 z m -41.76297,-5.1253 c 2.874037,-0.61932 5.225521,-1.22363 5.225521,-1.34292 0,-0.36801 -2.763303,-4.43356 -3.017734,-4.43988 -0.131784,-0.003 -0.634119,0.29494 -1.116301,0.66272 l -0.876689,0.66869 -8.408701,-1.4762 c -4.624785,-0.81191 -8.597166,-1.53125 -8.827514,-1.59853 -0.396546,-0.11582 -5.005144,3.18217 -5.005144,3.58177 0,0.0998 3.720703,0.8088 8.268229,1.57562 4.547526,0.76681 8.548358,1.45807 8.890737,1.53614 0.59827,0.1364 0.577666,0.18239 -0.529167,1.18115 -1.006182,0.90794 -1.068112,1.02269 -0.490216,0.90835 0.363802,-0.072 3.012943,-0.63759 5.886979,-1.25691 z m 19.75753,-4.8652 c 1.516928,-1.38109 2.945678,-2.50588 3.175,-2.49954 0.229323,0.006 0.922965,0.10941 1.541428,0.22906 1.100548,0.2129 1.12448,0.20222 1.12448,-0.50188 0,-1.82074 -0.359543,-3.97204 -0.66384,-3.97204 -0.302009,0 -9.942097,2.45894 -11.110119,2.83391 -0.489937,0.15728 -0.480131,0.18407 0.132292,0.3614 0.363802,0.10534 1.048411,0.2034 1.521354,0.2179 0.472943,0.0145 0.859896,0.13391 0.859896,0.26534 0,0.13143 -1.131094,1.15808 -2.513542,2.28143 -1.382448,1.12335 -2.513541,2.13455 -2.513541,2.2471 0,0.22061 3.5917,0.96739 4.894791,1.01772 0.651846,0.0252 1.28682,-0.41826 3.551801,-2.4804 z"
         id="path236"
         inkscape:connector-curvature="0" />
      <path
         style="fill:#247ba4;stroke-width:0.26458332"
         d="m 74.982246,229.66049 c -14.496304,-0.76663 -26.222151,-4.40657 -31.042753,-9.63631 -2.175191,-2.3598 -2.150065,-2.20944 -2.156645,-12.90613 l -0.0058,-9.44752 1.25677,1.3454 c 4.07071,4.3578 13.254233,7.93012 24.021429,9.34414 7.860141,1.03226 18.463506,0.97275 26.158534,-0.14681 11.017279,-1.60292 19.820639,-5.22652 23.492389,-9.66985 l 1.04237,-1.26141 -0.0842,9.64178 c -0.0816,9.34507 -0.1023,9.67843 -0.67264,10.83241 -0.68664,1.38927 -2.4815,3.33342 -4.11512,4.45737 -5.57828,3.83796 -16.24159,6.76425 -26.649552,7.31333 -5.717538,0.30163 -7.636285,0.32443 -11.244792,0.1336 z m 0.264583,-21.85224 c -8.540509,-0.50715 -14.382672,-1.50629 -20.23978,-3.46147 -6.566942,-2.19213 -11.052365,-5.19066 -12.593327,-8.41871 -1.217369,-2.55018 -0.669422,-4.83116 1.783653,-7.42492 6.044342,-6.391 22.736934,-10.26373 40.443128,-9.38292 12.569725,0.62529 23.919387,3.79366 29.260307,8.16831 2.33236,1.91041 3.37851,3.65886 3.49804,5.84638 0.0823,1.50586 -0.006,1.92662 -0.66853,3.18809 -2.65421,5.0534 -13.35805,9.51854 -26.269949,10.95861 -3.597936,0.40128 -12.269531,0.70146 -15.213542,0.52663 z m 1.119503,-3.91566 c 0.06608,-0.0661 -0.486199,-0.33549 -1.227283,-0.5987 -0.741085,-0.26321 -1.346198,-0.53992 -1.344692,-0.6149 0.0016,-0.075 1.427427,-1.4322 3.168719,-3.01604 1.741291,-1.58383 3.112791,-2.96576 3.047777,-3.07096 -0.06501,-0.10519 -1.367766,-0.40544 -2.895007,-0.66722 l -2.776802,-0.47596 -3.035263,2.83086 -3.035263,2.83085 -1.576119,-0.40841 c -2.347674,-0.60835 -2.239644,-0.70219 -2.0426,1.7744 0.09552,1.20054 0.23183,2.48927 0.302913,2.86383 l 0.129242,0.68102 5.582117,-1.00431 c 3.070165,-0.55237 5.636181,-1.05838 5.702261,-1.12446 z M 110.34292,198.802 c 2.3582,-1.80807 2.18946,-1.66144 2.05582,-1.78635 -0.10517,-0.0983 -16.839801,-3.07196 -17.287883,-3.07196 -0.118457,0 0.108437,-0.42454 0.504206,-0.94342 0.395769,-0.51888 0.673325,-0.98967 0.616791,-1.0462 -0.17145,-0.17145 -10.795714,2.37164 -10.797191,2.58449 -7.93e-4,0.10889 0.563267,1.20669 1.253385,2.43954 l 1.254757,2.24155 1.060855,-1.04115 1.060855,-1.04115 8.730739,1.55399 c 4.801906,0.8547 8.926796,1.56488 9.166416,1.57817 0.23963,0.0133 1.31119,-0.64708 2.38125,-1.46751 z m -41.383929,-5.20376 5.089244,-1.10976 -1.616178,-2.44038 -1.616176,-2.44038 -1.091816,0.77044 -1.091819,0.77043 -8.821753,-1.55796 -8.821753,-1.55797 -2.39773,1.89139 c -1.318751,1.04026 -2.290056,1.92239 -2.158455,1.96028 0.131601,0.0379 4.16444,0.73466 8.961864,1.54836 4.797424,0.8137 8.758453,1.51531 8.802287,1.55914 0.04383,0.0438 -0.48805,0.52662 -1.181964,1.07285 l -1.261663,0.99316 1.058334,-0.17493 c 0.582083,-0.0962 3.348493,-0.67431 6.147578,-1.28467 z m 20.53726,-5.82281 1.722299,-1.53805 1.517793,0.28058 c 0.834785,0.15432 1.539306,0.25113 1.565601,0.21514 0.0263,-0.036 -0.06788,-1.10725 -0.20928,-2.38055 -0.19753,-1.77877 -0.349973,-2.31511 -0.658014,-2.31511 -0.220509,0 -2.900484,0.65485 -5.955501,1.45521 -3.055019,0.80037 -5.62832,1.46708 -5.71845,1.48158 -0.395502,0.0637 1.239888,0.45257 2.003327,0.47642 0.464354,0.0145 0.905431,0.12532 0.980168,0.24625 0.07474,0.12092 -1.079093,1.22051 -2.564072,2.44353 l -2.699959,2.22365 2.910416,0.54928 2.910417,0.54927 1.236477,-1.07457 c 0.680064,-0.59102 2.011514,-1.7667 2.958778,-2.61263 z"
         id="path234"
         inkscape:connector-curvature="0" />
      <path
         style="fill:#1b76a1;stroke-width:0.26458332"
         d="m 74.890793,229.6273 c -16.555786,-0.80071 -29.895306,-5.72956 -32.603102,-12.04659 -0.472392,-1.10204 -0.510653,-1.89224 -0.510653,-10.54624 v -9.35493 l 1.360655,1.43869 c 4.007133,4.23695 12.399707,7.57127 22.903552,9.09943 7.649922,1.11295 18.498894,1.18058 26.160701,0.16307 10.874754,-1.4442 19.818024,-4.89315 23.966574,-9.24266 l 1.27935,-1.34133 v 9.45344 c 0,11.05209 0.0767,10.69414 -2.88948,13.49225 -5.00655,4.72293 -16.758297,8.269 -29.14443,8.79431 -1.80838,0.0767 -3.942808,0.17551 -4.743172,0.21958 -0.800365,0.0441 -3.401362,-0.014 -5.779995,-0.12902 z m -0.96688,-21.9307 c -12.836611,-0.69998 -24.07037,-4.09542 -29.138909,-8.80733 -3.955729,-3.67739 -3.979873,-7.26189 -0.07327,-10.87872 6.683072,-6.18734 22.239273,-9.63934 39.929172,-8.86048 15.812164,0.69619 29.419074,5.62874 32.225604,11.68189 0.7353,1.58591 0.75546,3.62853 0.0511,5.18053 -1.07826,2.37597 -4.41106,4.95302 -8.95349,6.92318 -6.29526,2.7304 -13.474743,4.22257 -22.927744,4.76525 -4.87325,0.27977 -5.910168,0.27936 -11.1125,-0.004 z m -4.101042,-2.5168 c 5.811718,-1.02202 6.63289,-1.20285 6.492671,-1.42973 -0.07097,-0.11483 -0.672245,-0.36088 -1.336164,-0.54676 -0.663916,-0.18589 -1.173001,-0.42522 -1.131295,-0.53186 0.04171,-0.10663 1.474814,-1.47261 3.184684,-3.0355 1.70987,-1.56289 3.108854,-2.92461 3.108854,-3.02606 0,-0.10145 -1.307325,-0.40253 -2.905165,-0.66907 l -2.905162,-0.48463 -2.717234,2.48874 c -3.79027,3.47153 -3.26672,3.21342 -5.347677,2.63639 l -1.793188,-0.49724 0.173039,2.28762 c 0.245674,3.24787 0.359339,3.70464 0.891894,3.58417 0.246556,-0.0558 2.174691,-0.40501 4.284743,-0.77607 z m 40.543399,-6.36717 c 1.05722,-0.81458 1.95513,-1.56814 1.99535,-1.67457 0.0402,-0.10643 -1.68619,-0.50482 -3.83646,-0.8853 -2.15027,-0.38048 -6.08186,-1.07501 -8.736867,-1.54338 l -4.827283,-0.8516 0.686816,-0.90046 c 0.377749,-0.49526 0.635334,-0.95195 0.572408,-1.01487 -0.114089,-0.1141 -10.543958,2.26108 -10.777797,2.4544 -0.127889,0.10573 1.713299,3.67377 2.322116,4.50002 0.320283,0.43467 0.421759,0.3852 1.322916,-0.64497 l 0.976027,-1.11575 8.73125,1.55592 c 4.802184,0.85575 8.937814,1.5662 9.190274,1.57877 0.25246,0.0126 1.32403,-0.64362 2.38125,-1.45821 z m -42.207922,-5.03444 c 3.17106,-0.67311 5.805144,-1.25839 5.85352,-1.30063 0.04838,-0.0422 -0.641659,-1.16189 -1.533411,-2.48811 l -1.621367,-2.41132 -1.112422,0.7828 -1.112422,0.7828 -8.819369,-1.55891 -8.819369,-1.5589 -2.343973,1.77608 c -1.289184,0.97684 -2.350859,1.84374 -2.359276,1.92644 -0.0084,0.0827 3.705398,0.78038 8.252924,1.55039 10.840947,1.83564 9.875974,1.63291 9.416278,1.9782 -1.48574,1.11596 -2.161041,1.73954 -1.88653,1.74206 0.175919,0.002 2.914357,-0.54779 6.085417,-1.2209 z m 21.070679,-5.73814 1.989867,-1.8026 1.517621,0.28054 c 0.834692,0.1543 1.545593,0.2511 1.579782,0.21511 0.03419,-0.036 -0.06008,-1.1537 -0.209499,-2.48379 l -0.271661,-2.41834 -5.060821,1.3096 c -7.799308,2.01824 -7.291742,1.8557 -6.516028,2.08672 0.363802,0.10834 1.041384,0.20886 1.505738,0.22336 0.464354,0.0145 0.905992,0.12622 0.981414,0.24826 0.07542,0.12204 -1.042583,1.16383 -2.484456,2.3151 -1.441871,1.15128 -2.627646,2.16335 -2.635057,2.24907 -0.0074,0.0857 1.266449,0.3892 2.830798,0.67442 l 2.844271,0.51857 0.969081,-0.80671 c 0.532996,-0.44369 1.864524,-1.61788 2.95895,-2.60931 z"
         id="path232"
         inkscape:connector-curvature="0" />
      <path
         style="fill:#0d6e9b;stroke-width:0.26458332"
         d="m 75.379121,229.63899 c -14.355074,-0.64836 -25.889566,-4.11743 -31.097956,-9.35291 -2.424301,-2.43691 -2.361154,-2.10031 -2.447399,-13.04581 l -0.07556,-9.58988 1.266188,1.35473 c 3.190894,3.41402 8.732579,6.10027 16.50099,7.9986 10.411282,2.54415 25.799692,2.82905 37.020407,0.68539 8.627379,-1.64822 15.732769,-4.65543 19.227689,-8.13772 l 1.67439,-1.66834 v 9.41794 c 0,9.0035 -0.0241,9.46522 -0.54796,10.49205 -3.20174,6.27591 -16.66987,11.20685 -32.1029,11.75347 -2.196661,0.0778 -4.291584,0.17211 -4.655386,0.20958 -0.363802,0.0375 -2.506927,-0.0152 -4.7625,-0.1171 z m -1.466972,-21.95433 c -7.08297,-0.38636 -12.780436,-1.39941 -18.588715,-3.30521 -8.547595,-2.80463 -13.546396,-6.90895 -13.546396,-11.12241 0,-3.90425 5.134246,-8.04295 13.306824,-10.72658 8.426701,-2.76708 17.433378,-3.79171 29.555676,-3.36236 13.212,0.46795 25.672202,4.29378 30.544112,9.37839 5.99816,6.26003 -0.20528,13.21082 -15.209389,17.04171 -4.624946,1.18085 -8.958559,1.77861 -15.334723,2.11522 -5.300957,0.27983 -5.251604,0.27992 -10.727389,-0.0188 z m -4.089278,-2.49555 c 5.703496,-1.00307 6.634573,-1.20944 6.492671,-1.43904 -0.07097,-0.11483 -0.667887,-0.35966 -1.32648,-0.54405 -0.658593,-0.1844 -1.197441,-0.37089 -1.197441,-0.41444 0,-0.0435 0.741908,-0.77221 1.648682,-1.61926 3.940596,-3.68104 4.818568,-4.55328 4.697566,-4.66692 -0.0707,-0.0664 -1.401471,-0.33568 -2.957277,-0.59841 l -2.828734,-0.4777 -2.5985,2.36606 c -4.064301,3.70074 -3.398522,3.36457 -5.482972,2.76847 l -1.800627,-0.51493 0.18002,2.5698 c 0.220292,3.14467 0.305709,3.46816 0.882817,3.34331 0.249599,-0.054 2.180223,-0.4018 4.290275,-0.77289 z m 40.632329,-6.40844 c 1.08107,-0.83216 1.96559,-1.59335 1.96559,-1.69152 0,-0.0982 -0.74414,-0.30805 -1.65365,-0.46639 -0.9095,-0.15834 -4.83196,-0.84688 -8.71657,-1.53009 l -7.062924,-1.24219 0.801304,-1.01173 c 0.440716,-0.55645 0.702003,-1.01252 0.580633,-1.0135 -0.747083,-0.006 -10.936295,2.53496 -10.936295,2.72728 0,0.35085 2.396966,4.68283 2.591099,4.68283 0.09185,0 0.647753,-0.45889 1.235345,-1.01977 l 1.068347,-1.01976 8.466667,1.51647 c 4.656664,0.83406 8.743004,1.53107 9.080764,1.54893 0.37586,0.0199 1.37661,-0.55449 2.57969,-1.48056 z m -42.226301,-5.00061 c 3.13226,-0.67208 5.734593,-1.25737 5.782969,-1.30063 0.04838,-0.0433 -0.640961,-1.16272 -1.531863,-2.48768 l -1.619819,-2.40902 -1.11397,0.76513 -1.11397,0.76512 -8.813643,-1.55291 -8.813643,-1.55292 -2.151924,1.65317 c -1.183559,0.90924 -2.274128,1.73599 -2.423487,1.83722 -0.149359,0.10122 -0.215478,0.2377 -0.146932,0.30327 0.115414,0.11041 17.312316,3.09044 17.8106,3.08637 0.122909,-0.001 -0.29381,0.42781 -0.926042,0.95292 -0.632232,0.52511 -1.199122,1.00136 -1.259755,1.05834 -0.264317,0.24836 0.966922,0.0305 6.321479,-1.11838 z m 20.424582,-5.20884 2.558738,-2.33501 1.520957,0.28117 c 0.836528,0.15464 1.548932,0.25171 1.583121,0.21572 0.03419,-0.036 -0.06225,-1.17309 -0.214309,-2.52687 -0.194988,-1.73597 -0.371118,-2.4251 -0.597602,-2.33819 -0.176622,0.0678 -2.689952,0.7335 -5.585177,1.47938 -6.817566,1.75638 -6.486763,1.6462 -5.660921,1.88533 0.363802,0.10534 1.041384,0.2034 1.505738,0.2179 0.464354,0.0145 0.902102,0.11993 0.972773,0.23428 0.07067,0.11434 -1.048195,1.15614 -2.486364,2.3151 -1.438169,1.15896 -2.620058,2.18244 -2.626416,2.2744 -0.0063,0.092 1.149295,0.36833 2.568123,0.61416 1.418828,0.24583 2.69875,0.48203 2.844271,0.52489 0.35138,0.10347 0.622863,-0.10986 3.617068,-2.84226 z"
         id="path230"
         inkscape:connector-curvature="0" />
    </g>
  </g>
</svg>
