<?xml version="1.0" encoding="UTF-8" standalone="no"?>
<!-- Created with Inkscape (http://www.inkscape.org/) -->

<svg
   xmlns:dc="http://purl.org/dc/elements/1.1/"
   xmlns:cc="http://creativecommons.org/ns#"
   xmlns:rdf="http://www.w3.org/1999/02/22-rdf-syntax-ns#"
   xmlns:svg="http://www.w3.org/2000/svg"
   xmlns="http://www.w3.org/2000/svg"
   xmlns:sodipodi="http://sodipodi.sourceforge.net/DTD/sodipodi-0.dtd"
   xmlns:inkscape="http://www.inkscape.org/namespaces/inkscape"
   width="80.168808mm"
   height="39.290939mm"
   viewBox="0 0 80.168808 39.290939"
   version="1.1"
   id="svg8"
   inkscape:version="0.92.5 (2060ec1f9f, 2020-04-08)"
   sodipodi:docname="switch.svg">
  <defs
     id="defs2" />
  <sodipodi:namedview
     id="base"
     pagecolor="#ffffff"
     bordercolor="#666666"
     borderopacity="1.0"
     inkscape:pageopacity="0.0"
     inkscape:pageshadow="2"
     inkscape:zoom="1.1621094"
     inkscape:cx="213.92713"
     inkscape:cy="77.212013"
     inkscape:document-units="mm"
     inkscape:current-layer="layer1"
     showgrid="false"
     fit-margin-top="0"
     fit-margin-left="0"
     fit-margin-right="0"
     fit-margin-bottom="0"
     inkscape:window-width="2504"
     inkscape:window-height="1013"
     inkscape:window-x="56"
     inkscape:window-y="27"
     inkscape:window-maximized="1" />
  <metadata
     id="metadata5">
    <rdf:RDF>
      <cc:Work
         rdf:about="">
        <dc:format>image/svg+xml</dc:format>
        <dc:type
           rdf:resource="http://purl.org/dc/dcmitype/StillImage" />
        <dc:title></dc:title>
      </cc:Work>
    </rdf:RDF>
  </metadata>
  <g
     inkscape:label="Layer 1"
     inkscape:groupmode="layer"
     id="layer1"
     transform="translate(-49.914806,-129.9714)">
    <g
       id="g152"
       transform="translate(19.62602,11.29859)"
       style="fill:#ffffff">
      <rect
         y="119.14948"
         x="54.887794"
         height="17.595049"
         width="55.408546"
         id="rect107"
         style="fill:#ffffff;stroke-width:0.26458332" />
      <rect
         y="137.1721"
         x="31.21483"
         height="2.0859778"
         width="76.020126"
         id="rect109"
         style="fill:#ffffff;stroke-width:0.12482768" />
      <rect
         y="128.41689"
         x="42.904171"
         height="8.6223297"
         width="15.843546"
         id="rect131"
         style="fill:#ffffff;stroke-width:0.26458332" />
      <rect
         y="129.97141"
         x="76.225449"
         height="27.747036"
         width="15.843546"
         id="rect131-3"
         style="fill:#ffffff;stroke-width:0.47463357" />
    </g>
    <g
       id="g81"
       transform="translate(1.4704858,9.529425)">
      <path
         style="fill:#e6eff3;stroke-width:0.26458332"
         d="m 48.44432,150.07531 v -9.525 h 30.1625 30.1625 v 9.525 9.525 h -30.1625 -30.1625 z m 60.85417,-0.0675 v -9.59251 l 9.65729,-9.65457 9.65729,-9.65457 -0.007,8.72989 -0.007,8.72989 -8.7506,9.65729 c -4.81283,5.31151 -9.09245,10.04424 -9.51028,10.51719 -0.41783,0.47294 -0.82285,0.85989 -0.90006,0.85989 -0.0772,0 -0.14037,-4.31662 -0.14037,-9.5925 z M 49.017584,139.76702 c 0.04851,-0.13977 5.383011,-4.54508 11.854453,-9.78958 l 11.766259,-9.53546 H 100.3611 c 15.24754,0 27.71013,0.0893 27.69464,0.19844 -0.0155,0.10914 -4.45056,4.51136 -9.85573,9.78272 l -9.82757,9.58429 -29.721522,0.007 c -18.886816,0.004 -29.689378,-0.0858 -29.633334,-0.24727 z m 25.946757,-3.97921 c 4.767929,0 7.640664,-0.0982 7.74352,-0.26458 0.10754,-0.174 -2.395003,-0.26458 -7.309927,-0.26458 h -7.47345 l 0.763479,-0.7969 0.76348,-0.79691 -1.309291,0.39858 c -0.72011,0.21921 -2.410619,0.71313 -3.756686,1.09759 -1.346068,0.38447 -2.447396,0.773 -2.447396,0.86341 0,0.0904 0.803672,0.4789 1.785937,0.86333 l 1.785938,0.69896 0.937197,-0.89945 0.937197,-0.89945 z m 32.669889,-4.06838 c 0.044,-0.044 -0.76829,-0.41289 -1.80515,-0.81969 l -1.8852,-0.73963 -0.64917,0.82947 -0.64916,0.82948 -7.719886,0.008 c -6.368728,0.007 -7.809776,0.0764 -8.233477,0.39687 -0.455414,0.34446 0.348316,0.38846 7.09562,0.38846 h 7.609213 l -0.54171,0.76076 -0.5417,0.76075 3.62028,-1.16742 c 1.99116,-0.64208 3.65631,-1.20344 3.70034,-1.24747 z m -21.016279,-3.07537 c 7.181252,0 7.538677,-0.0237 7.99616,-0.52916 0.47783,-0.528 0.461955,-0.52918 -7.168888,-0.53505 -7.639425,-0.006 -7.647056,-0.006 -6.98632,-0.52329 0.363802,-0.28457 0.575514,-0.52004 0.470469,-0.52328 -0.218848,-0.007 -6.22009,1.5328 -6.820469,1.7497 -0.236842,0.0856 0.349949,0.4438 1.455208,0.8884 l 1.852084,0.74501 0.842242,-0.63616 0.842243,-0.63617 z m 29.030539,-4.24116 c 0,-0.085 -0.83368,-0.55783 -1.85263,-1.05077 l -1.85263,-0.89624 -0.87194,0.84513 -0.87195,0.84513 h -7.41132 c -5.511179,0 -7.527394,0.0848 -7.864084,0.33073 -0.365345,0.26686 0.97877,0.3164 6.960884,0.25653 4.07752,-0.0408 7.41367,0.0122 7.41367,0.11781 0,0.10561 -0.30723,0.51269 -0.68273,0.90463 l -0.68274,0.71262 3.85774,-0.95553 c 2.12175,-0.52554 3.85773,-1.02506 3.85773,-1.11004 z"
         id="path105"
         inkscape:connector-curvature="0" />
      <path
         style="fill:#dae6ed;stroke-width:0.26458332"
         d="m 48.44432,150.07531 v -9.52725 l 30.096354,0.0673 30.096356,0.0673 v 9.39271 9.39271 l -30.096356,0.0673 -30.096354,0.0673 z m 60.86381,-0.001 -0.01,-9.65869 9.65729,-9.65457 9.65729,-9.65457 v 8.68612 8.68613 l -8.26823,9.16061 c -4.54753,5.03833 -8.88896,9.82052 -9.64764,10.62709 l -1.37942,1.46649 -0.01,-9.65865 z M 49.017584,139.78223 c 0.04851,-0.1314 5.314525,-4.47718 11.702264,-9.65729 l 11.614069,-9.41838 27.808853,0.0109 27.80884,0.0109 -9.78958,9.63607 -9.78959,9.63607 -29.721522,0.0103 c -17.579047,0.006 -29.685498,-0.0873 -29.633334,-0.22861 z m 25.946757,-3.99442 c 4.767929,0 7.640664,-0.0982 7.74352,-0.26458 0.10754,-0.174 -2.395003,-0.26458 -7.309927,-0.26458 h -7.47345 l 0.777105,-0.82518 c 0.774586,-0.82249 0.774961,-0.82449 0.115647,-0.61665 -0.363802,0.11468 -2.149739,0.65318 -3.96875,1.19666 -2.918362,0.87194 -3.229505,1.01911 -2.645833,1.25146 0.363802,0.14483 1.256771,0.50283 1.984375,0.79555 l 1.322917,0.53224 0.937197,-0.90246 0.937197,-0.90246 z m 32.642639,-4.04113 c 0.059,-0.059 -0.74524,-0.44179 -1.78724,-0.8506 l -1.89454,-0.7433 -0.6868,0.83553 -0.68679,0.83552 -7.672915,0.006 c -6.330114,0.005 -7.762799,0.074 -8.186508,0.39449 -0.455414,0.34446 0.348316,0.38846 7.09562,0.38846 h 7.609213 l -0.54228,0.76157 -0.54229,0.76157 3.59362,-1.14099 c 1.97649,-0.62754 3.6419,-1.18927 3.70091,-1.24828 z m -29.264744,-2.44116 0.896557,-0.66146 h 7.448214 c 7.112196,0 7.46982,-0.0239 7.927104,-0.52916 0.47783,-0.528 0.461955,-0.52918 -7.168888,-0.53505 l -7.647778,-0.006 0.661458,-0.54581 c 0.773081,-0.63791 1.042704,-0.67157 -3.505729,0.43763 -1.70987,0.41697 -3.108854,0.82382 -3.108854,0.90411 0,0.0803 0.803672,0.46498 1.785937,0.85486 0.982266,0.38989 1.792571,0.71639 1.80068,0.72556 0.0081,0.009 0.418193,-0.28099 0.911299,-0.64479 z m 37.306254,-4.90262 c 0,-0.085 -0.83368,-0.55783 -1.85263,-1.05077 l -1.85263,-0.89624 -0.87194,0.84513 -0.87195,0.84513 h -7.41132 c -6.106886,0 -7.501706,0.0684 -7.924901,0.38846 -0.455539,0.34455 0.33688,0.38941 7.010391,0.39687 l 7.52398,0.008 -0.73223,0.76428 -0.73224,0.76429 3.85774,-0.95553 c 2.12175,-0.52554 3.85773,-1.02506 3.85773,-1.11004 z"
         id="path103"
         inkscape:connector-curvature="0" />
      <path
         style="fill:#b5cad8;stroke-width:0.26458332"
         d="m 48.44432,150.07531 v -9.525 h 30.030208 30.030212 v 9.525 9.525 H 78.474528 48.44432 Z m 60.85417,-0.006 v -9.65424 l 9.65729,-9.65457 9.65729,-9.65457 v 8.67194 8.67194 l -8.76292,9.71524 c -4.8196,5.34338 -9.16538,10.12997 -9.65729,10.63687 l -0.89437,0.92164 z m -60.311354,-10.2466 c 0.0075,-0.10914 5.274345,-4.45492 11.704083,-9.65729 l 11.690434,-9.45886 h 27.718837 c 15.24536,0 27.71883,0.0395 27.71883,0.0877 0,0.0482 -4.3979,4.394 -9.77311,9.6573 l -9.77311,9.56963 H 78.623295 c -16.307395,0 -29.643666,-0.0893 -29.636159,-0.19844 z m 17.316559,-2.97656 0.76046,-0.79375 7.424978,-0.009 c 5.938261,-0.008 7.557423,-0.0851 8.086437,-0.3875 0.585345,-0.33461 -0.198626,-0.3792 -6.813021,-0.3875 -4.110964,-0.005 -7.474479,-0.091 -7.474479,-0.19076 0,-0.0998 0.26789,-0.47601 0.595312,-0.83612 0.377666,-0.41536 0.450215,-0.60725 0.198438,-0.52487 -0.218282,0.0714 -1.973405,0.5916 -3.900274,1.15595 -1.926869,0.56435 -3.415151,1.11055 -3.307292,1.21377 0.181089,0.17332 3.182472,1.4786 3.520044,1.53085 0.08191,0.0127 0.491143,-0.33413 0.909397,-0.77069 z m 39.934625,-4.54057 1.83463,-0.56764 -2.06316,-0.80571 -2.06317,-0.8057 -0.6975,0.84865 -0.69751,0.84865 -7.688491,-0.002 c -6.353281,-0.002 -7.777684,0.0651 -8.202084,0.38608 -0.455472,0.3445 0.351825,0.38941 7.134188,0.39687 7.258257,0.008 7.627527,0.032 7.250137,0.47144 -0.87351,1.01715 -0.70892,1.07288 1.30416,0.44157 1.1298,-0.35431 2.87976,-0.89963 3.8888,-1.21183 z m -27.896084,-3.00006 0.896557,-0.66146 h 7.448214 c 7.112196,0 7.46982,-0.0239 7.927104,-0.52916 0.477811,-0.52798 0.46213,-0.52917 -6.97045,-0.52917 -4.097139,0 -7.449341,-0.0702 -7.449341,-0.15603 0,-0.0858 0.256026,-0.36334 0.568946,-0.61673 0.448988,-0.36357 -0.220458,-0.26119 -3.175,0.48552 -2.05917,0.52043 -3.743946,1.01731 -3.743946,1.10418 0,0.13074 2.972575,1.45486 3.454326,1.53872 0.08087,0.0141 0.550484,-0.27207 1.04359,-0.63587 z m 34.395834,-3.97439 3.30729,-0.83877 -2.04634,-1.02281 -2.04634,-1.02281 -0.87668,0.8497 -0.87666,0.84971 h -7.41132 c -6.106886,0 -7.501706,0.0684 -7.924901,0.38846 -0.455539,0.34455 0.33688,0.38941 7.010391,0.39687 l 7.52398,0.008 -0.77711,0.81395 -0.7771,0.81395 0.79375,-0.19895 c 0.43656,-0.10942 2.28203,-0.5764 4.10104,-1.03772 z"
         id="path101"
         inkscape:connector-curvature="0" />
      <path
         style="fill:#a9c4d4;stroke-width:0.26458332"
         d="m 48.620709,159.42392 c -0.09701,-0.097 -0.176389,-4.32373 -0.176389,-9.39271 v -9.21631 h 30.030208 30.030212 v 9.3927 9.39271 H 78.650918 c -16.419602,0 -29.933196,-0.0794 -30.030209,-0.17639 z m 60.677781,-9.33274 v -9.63124 l 9.65414,-9.67825 9.65415,-9.67825 0.003,8.65343 0.003,8.65342 -8.89735,9.86741 c -4.89354,5.42707 -9.23932,10.2223 -9.65729,10.65607 l -0.75994,0.78866 z m -48.635663,-19.85289 11.726284,-9.51826 27.779639,-0.007 27.77963,-0.007 -2.64422,2.60317 c -1.45432,1.43174 -5.81647,5.71799 -9.69367,9.525 l -7.04945,6.92183 H 78.748792 48.936542 Z m 5.640868,6.60786 0.76046,-0.79375 7.55727,-0.008 c 6.22573,-0.007 7.64776,-0.0769 8.07086,-0.39687 0.455494,-0.34452 -0.330168,-0.38846 -6.945312,-0.38846 -4.102397,0 -7.458903,-0.0816 -7.458903,-0.18139 0,-0.0998 0.26789,-0.47459 0.595312,-0.83295 0.706814,-0.7736 1.045207,-0.829 -3.842505,0.62909 -1.858717,0.55448 -3.287467,1.09495 -3.175,1.20104 0.204873,0.19326 3.248281,1.53415 3.528421,1.55459 0.08191,0.006 0.491143,-0.34632 0.909397,-0.78288 z m 38.602245,-4.09437 3.14808,-0.98661 -1.81753,-0.76681 c -0.99964,-0.42174 -1.96623,-0.7668 -2.14797,-0.7668 -0.18174,0 -0.59452,0.35719 -0.91729,0.79375 l -0.58684,0.79375 h -7.704883 c -6.36501,0 -7.794194,0.0676 -8.218472,0.38846 -0.455472,0.34451 0.351825,0.38942 7.134188,0.39688 7.258257,0.008 7.627527,0.032 7.250137,0.47143 -1.101792,1.28297 -1.327545,1.30191 3.86058,-0.32405 z m -26.454931,-3.44626 0.867217,-0.66146 h 7.408497 c 7.07248,0 7.43022,-0.024 7.887388,-0.52916 0.477806,-0.52797 0.461883,-0.52919 -7.036596,-0.53753 l -7.515487,-0.008 0.79375,-0.70302 c 0.436562,-0.38666 0.615156,-0.63845 0.396875,-0.55954 -0.218281,0.0789 -2.033984,0.5434 -4.034896,1.03219 -2.000911,0.48879 -3.636997,0.9527 -3.635745,1.03092 0.0021,0.13251 3.307987,1.50133 3.78569,1.56749 0.118851,0.0165 0.606338,-0.26773 1.083307,-0.63153 z m 34.287061,-3.97439 3.30729,-0.83877 -2.04634,-1.02281 -2.04634,-1.02281 -0.87668,0.8497 -0.87666,0.84971 -7.52803,0.008 c -6.200022,0.007 -7.618633,0.0769 -8.041623,0.39688 -0.455398,0.34444 0.352118,0.38846 7.127103,0.38846 h 7.6407 l -0.77711,0.81395 -0.7771,0.81395 0.79375,-0.19895 c 0.43656,-0.10942 2.28203,-0.5764 4.10104,-1.03772 z"
         id="path99"
         inkscape:connector-curvature="0" />
      <path
         style="fill:#96b5c9;stroke-width:0.26458332"
         d="m 48.44432,150.07531 v -9.26041 h 30.030208 30.030212 v 9.26041 9.26042 H 78.474528 48.44432 Z m 60.85813,-0.0441 0.004,-9.34861 9.55985,-9.59114 c 5.25792,-5.27513 9.60192,-9.59115 9.65333,-9.59115 0.0514,0 0.0935,3.79695 0.0935,8.43767 v 8.43767 l -9.40121,10.41389 c -5.17067,5.72764 -9.51645,10.45358 -9.65729,10.50209 -0.16194,0.0558 -0.25463,-3.34881 -0.25212,-9.26042 z M 49.512102,139.3754 c 0.213084,-0.20963 5.447582,-4.49205 11.632218,-9.51647 l 11.244791,-9.13532 27.778969,-0.009 27.77897,-0.009 -1.8498,1.81616 c -1.01739,0.99889 -5.39011,5.28514 -9.71715,9.525 l -7.86735,7.70884 H 78.818714 c -25.853414,0 -29.643928,-0.0493 -29.306612,-0.38116 z m 16.791593,-2.52925 0.76046,-0.79375 7.55727,-0.008 c 6.22573,-0.007 7.64776,-0.0769 8.07086,-0.39687 0.455494,-0.34452 -0.330168,-0.38846 -6.945312,-0.38846 -4.102397,0 -7.458903,-0.0828 -7.458903,-0.18396 0,-0.10118 0.306078,-0.50344 0.680173,-0.89391 0.679564,-0.70931 0.676508,-0.70885 -3.412218,0.51469 -2.250815,0.67355 -4.036244,1.28317 -3.967619,1.35472 0.131176,0.13677 3.549119,1.55199 3.805892,1.57586 0.08191,0.008 0.491143,-0.34334 0.909397,-0.7799 z m 38.254165,-3.98271 3.55,-1.12287 -0.92604,-0.38647 c -0.50932,-0.21257 -1.46728,-0.6003 -2.12879,-0.86164 l -1.20274,-0.47517 -0.6173,0.90089 -0.6173,0.90088 h -7.72053 c -6.378774,0 -7.809791,0.0675 -8.234125,0.38846 -0.455469,0.3445 0.352444,0.38942 7.1393,0.39688 l 7.652895,0.008 -0.57529,0.61237 c -0.64866,0.69047 -0.7501,1.09883 -0.22268,0.89644 0.19392,-0.0744 1.9501,-0.6406 3.9026,-1.25818 z m -26.106851,-3.55792 0.867217,-0.66146 h 7.408497 c 7.07248,0 7.43022,-0.024 7.887388,-0.52916 0.477806,-0.52797 0.461883,-0.52919 -7.036596,-0.53753 l -7.515487,-0.008 0.79375,-0.70302 c 0.436562,-0.38666 0.615156,-0.63845 0.396875,-0.55954 -0.218281,0.0789 -2.033984,0.5434 -4.034896,1.03219 -2.000911,0.48879 -3.638021,0.95363 -3.638021,1.03297 0,0.14234 3.368831,1.54636 3.787966,1.5787 0.118851,0.009 0.606338,-0.28099 1.083307,-0.64479 z m 33.956331,-3.84366 c 1.92815,-0.49121 3.50573,-0.96208 3.50573,-1.04639 0,-0.0843 -0.87782,-0.58764 -1.95072,-1.11852 l -1.95071,-0.96524 -0.87931,0.90722 -0.87931,0.90722 -7.55487,0.008 c -6.223624,0.007 -7.645373,0.0769 -8.068463,0.39688 -0.455398,0.34444 0.352118,0.38846 7.127103,0.38846 h 7.6407 l -0.77711,0.83149 c -0.65504,0.70089 -0.69399,0.81202 -0.24794,0.70753 0.29105,-0.0682 2.10675,-0.52586 4.0349,-1.01706 z"
         id="path97"
         inkscape:connector-curvature="0" />
      <path
         style="fill:#7ba5be;stroke-width:0.26458332"
         d="m 48.44432,150.07531 v -9.26041 h 30.030208 30.030212 v 9.26041 9.26042 H 78.474528 48.44432 Z m 61.11875,-0.13734 v -9.52271 l 9.525,-9.52224 9.525,-9.52224 v 8.49448 8.49449 l -7.87135,8.70977 c -4.32925,4.79038 -8.6155,9.53808 -9.525,10.55046 l -1.65365,1.8407 z M 49.420242,139.46856 c 0.158403,-0.15841 5.3912,-4.43949 11.628438,-9.51352 l 11.340431,-9.2255 27.777769,-0.0115 27.77777,-0.0115 -1.18715,1.16093 c -0.65292,0.6385 -5.03688,4.92475 -9.74211,9.525 l -8.55497,8.36407 H 78.796327 c -21.384373,0 -29.583704,-0.0804 -29.376085,-0.288 z m 16.883453,-2.62241 0.76046,-0.79375 7.55727,-0.008 c 6.22573,-0.007 7.64776,-0.0769 8.07086,-0.39687 0.455494,-0.34452 -0.330168,-0.38846 -6.945312,-0.38846 -4.407056,0 -7.458903,-0.1004 -7.458903,-0.24538 0,-0.13496 0.315832,-0.49382 0.70185,-0.79746 0.386018,-0.30364 0.653908,-0.58936 0.595312,-0.63494 -0.0586,-0.0456 -1.952006,0.48008 -4.207579,1.16812 -3.592264,1.09579 -4.018981,1.28376 -3.439583,1.51513 0.363802,0.14528 1.25677,0.50777 1.984375,0.80553 0.727604,0.29776 1.389938,0.54788 1.471853,0.55582 0.08191,0.008 0.491143,-0.34276 0.909397,-0.77932 z m 38.232295,-3.97 3.57187,-1.13224 -0.92604,-0.38814 c -0.50932,-0.21348 -1.46728,-0.60197 -2.12879,-0.86331 l -1.20274,-0.47517 -0.6173,0.90089 -0.6173,0.90088 h -7.870996 c -6.673662,0 -7.921101,0.0604 -8.200374,0.39688 -0.291452,0.35118 0.52737,0.39687 7.111354,0.39687 4.0924,0 7.440726,0.10449 7.440726,0.23219 0,0.1277 -0.17859,0.38041 -0.39687,0.56156 -0.48071,0.39896 -0.52626,0.89898 -0.0661,0.7261 0.1819,-0.0683 1.93808,-0.63378 3.90261,-1.25651 z m -26.084981,-3.57063 0.867217,-0.66146 7.383359,-0.009 c 6.826848,-0.008 7.42823,-0.0462 7.978672,-0.50543 0.327422,-0.27315 0.595313,-0.57041 0.595313,-0.66059 0,-0.0902 -3.400058,-0.13062 -7.555683,-0.0899 l -7.555682,0.0741 0.742661,-0.62544 c 0.408464,-0.344 0.564068,-0.56978 0.345787,-0.50175 -0.218281,0.068 -2.033984,0.5236 -4.034896,1.01239 -2.000911,0.48879 -3.638021,0.95363 -3.638021,1.03297 0,0.14234 3.368831,1.54636 3.787966,1.5787 0.118851,0.009 0.606338,-0.28099 1.083307,-0.64479 z m 33.890181,-3.80016 3.96875,-1.00773 -2.14599,-1.08622 -2.14599,-1.08623 -0.88247,0.91049 -0.88247,0.91048 -7.55487,0.008 c -6.223624,0.007 -7.645373,0.0769 -8.068463,0.39688 -0.455398,0.34444 0.352118,0.38846 7.127103,0.38846 h 7.6407 l -0.76046,0.79375 c -0.41826,0.43656 -0.64889,0.79052 -0.51252,0.78659 0.13636,-0.004 2.03387,-0.46064 4.21668,-1.01488 z"
         id="path95"
         inkscape:connector-curvature="0" />
      <path
         style="fill:#6b98b4;stroke-width:0.26458332"
         d="m 48.44432,150.07531 v -9.26041 h 30.030208 30.030212 v 9.26041 9.26042 H 78.474528 48.44432 Z m 61.11875,-0.15572 v -9.50433 l 9.525,-9.52224 9.525,-9.52224 v 8.47299 8.473 l -9.42268,10.44333 c -5.18248,5.74384 -9.46873,10.49295 -9.525,10.55358 -0.0563,0.0606 -0.10232,-4.1667 -0.10232,-9.39409 z M 49.512102,139.39042 c 0.213084,-0.20139 5.472589,-4.48764 11.687788,-9.525 l 11.300363,-9.15886 h 27.674517 27.67452 l -7.48946,7.34323 c -4.11921,4.03878 -8.50963,8.32503 -9.75649,9.525 l -2.26702,2.18177 H 78.730496 c -25.222288,0 -29.548456,-0.0542 -29.218394,-0.36614 z m 17.056176,-2.54427 0.760461,-0.79375 h 7.461813 c 7.058109,0 7.495606,-0.0284 8.086436,-0.52545 l 0.624623,-0.52544 -7.593208,0.0624 -7.59321,0.0624 0.694754,-0.72484 c 0.382114,-0.39866 0.643902,-0.76665 0.581751,-0.81775 -0.217345,-0.1787 -8.176302,2.3163 -7.98203,2.50223 0.297393,0.28462 3.313424,1.50459 3.78463,1.53085 0.227436,0.0127 0.755727,-0.33413 1.17398,-0.77069 z m 37.432822,-3.74037 c 1.96768,-0.602 3.67338,-1.17999 3.79046,-1.28443 0.11707,-0.10444 -0.70838,-0.5651 -1.83435,-1.02369 l -2.0472,-0.8338 -0.76461,0.9276 -0.76461,0.9276 -7.719795,0.008 c -6.368653,0.007 -7.80969,0.0764 -8.233391,0.39687 -0.455425,0.34447 0.346141,0.38846 7.077604,0.38846 4.175157,0 7.591192,0.0816 7.591192,0.18139 0,0.0998 -0.25888,0.45695 -0.57528,0.79375 -0.31641,0.3368 -0.46782,0.61236 -0.33646,0.61236 0.13136,0 1.84876,-0.49254 3.81644,-1.09453 z m -25.658864,-3.66797 c 0.620266,-0.48518 1.124718,-0.51776 8.100256,-0.52328 7.120295,-0.006 7.468648,-0.0294 8.135938,-0.55425 0.383426,-0.30161 0.69714,-0.65879 0.69714,-0.79375 0,-0.14486 -3.062081,-0.24779 -7.47448,-0.25127 -7.467438,-0.006 -7.473857,-0.006 -6.81302,-0.52328 0.363802,-0.28457 0.542396,-0.51683 0.396875,-0.51612 -0.145521,7.1e-4 -2.050521,0.45956 -4.233334,1.01969 l -3.96875,1.01843 1.058334,0.46366 c 1.435351,0.62884 2.854118,1.14934 3.175,1.16481 0.145521,0.007 0.562239,-0.22007 0.926041,-0.50464 z m 33.998954,-3.93245 3.96875,-1.00773 -2.14599,-1.08622 -2.14599,-1.08623 -0.88247,0.91049 -0.88247,0.91048 h -7.57045 c -6.246805,0 -7.660241,0.0679 -8.084035,0.38846 -0.455469,0.3445 0.352851,0.38941 7.142685,0.39687 l 7.65627,0.008 -0.76046,0.79375 c -0.41826,0.43656 -0.64889,0.79052 -0.51252,0.78659 0.13636,-0.004 2.03387,-0.46064 4.21668,-1.01488 z"
         id="path93"
         inkscape:connector-curvature="0" />
      <path
         style="fill:#508dae;stroke-width:0.26458332"
         d="m 48.44432,150.07531 v -9.26041 h 30.030208 30.030212 v 9.26041 9.26042 H 78.474528 48.44432 Z m 61.11875,-0.1712 v -9.48885 l 9.525,-9.52224 9.525,-9.52224 v 8.47072 8.47072 l -8.26823,9.14167 c -4.54753,5.02793 -8.83378,9.7711 -9.525,10.54038 l -1.25677,1.39869 z M 49.512102,139.39842 c 0.213084,-0.19697 5.478867,-4.48377 11.70174,-9.52621 l 11.314314,-9.16808 27.594984,0.0674 27.59498,0.0674 -9.67112,9.45886 -9.67112,9.45885 H 78.750282 c -24.924186,0 -29.564123,-0.0568 -29.23818,-0.35814 z m 17.056176,-2.55227 0.760461,-0.79375 h 7.461813 c 7.031617,0 7.497823,-0.03 8.086436,-0.52037 0.624081,-0.51991 0.618107,-0.52037 -6.895975,-0.52916 l -7.520601,-0.009 0.620428,-0.66041 c 0.341235,-0.36323 0.570348,-0.70604 0.509141,-0.7618 -0.211197,-0.19241 -8.191285,2.31157 -7.987994,2.50646 0.302735,0.29023 3.313938,1.51187 3.792311,1.53853 0.227436,0.0127 0.755727,-0.33413 1.17398,-0.77069 z m 37.540162,-3.74936 c 1.90864,-0.60694 3.56604,-1.18493 3.68312,-1.28442 0.11707,-0.0995 -0.71173,-0.55748 -1.84178,-1.01774 l -2.05465,-0.83682 -0.62479,0.79833 -0.62479,0.79834 -7.587595,0.002 c -7.113278,0.002 -7.637214,0.0344 -8.381344,0.52496 l -0.79375,0.52323 7.630888,0.0703 7.630891,0.0703 -0.57249,0.72761 c -0.33694,0.42824 -0.44113,0.7276 -0.25323,0.7276 0.1756,0 1.88088,-0.49658 3.78952,-1.10352 z m -25.766204,-3.65898 c 0.620673,-0.48549 1.125358,-0.51776 8.185031,-0.52328 7.356449,-0.006 7.537175,-0.0187 8.135938,-0.58117 0.336801,-0.31641 0.612365,-0.6736 0.612365,-0.79375 0,-0.12016 -3.363516,-0.22111 -7.47448,-0.22435 -7.467438,-0.006 -7.473857,-0.006 -6.81302,-0.52328 0.363802,-0.28457 0.542396,-0.51683 0.396875,-0.51612 -0.145521,7.1e-4 -2.050521,0.45851 -4.233334,1.01735 l -3.96875,1.01608 1.322917,0.56837 c 0.727604,0.31261 1.561042,0.67753 1.852083,0.81094 0.809829,0.37122 1.262293,0.31403 1.984375,-0.25079 z m 33.885984,-3.86529 c 2.09943,-0.52518 3.85923,-0.9939 3.91067,-1.04161 0.0514,-0.0477 -0.85473,-0.56351 -2.01371,-1.14623 l -2.10722,-1.0595 -0.88247,0.91049 -0.88247,0.91048 h -7.57045 c -6.246805,0 -7.660241,0.0679 -8.084035,0.38846 -0.455469,0.3445 0.352851,0.38941 7.142685,0.39687 l 7.65627,0.008 -0.76046,0.79375 c -0.41826,0.43656 -0.6402,0.79375 -0.4932,0.79375 0.14699,0 1.98497,-0.4297 4.08439,-0.95488 z"
         id="path91"
         inkscape:connector-curvature="0" />
      <path
         style="fill:#24749d;stroke-width:0.26458332"
         d="m 48.708903,150.07531 v -9.26041 h 29.897917 29.89792 v 9.26041 9.26042 H 78.60682 48.708903 Z m 60.854167,-0.19066 v -9.46939 l 9.525,-9.52224 9.525,-9.52224 -0.008,8.46529 -0.008,8.46528 -9.51739,10.52635 -9.51739,10.52634 z M 49.383591,139.52374 c 0.138244,-0.12804 5.411209,-4.41429 11.7177,-9.52499 l 11.466346,-9.29219 h 27.610313 27.61032 l -9.70791,9.52174 -9.70792,9.52174 -29.620099,0.003 c -17.066358,0.002 -29.513574,-0.0954 -29.36875,-0.22956 z m 25.319331,-3.47134 c 7.045428,0 8.666398,-0.15641 8.666398,-0.83622 0,-0.12217 -3.356026,-0.22212 -7.457835,-0.22212 h -7.457834 l 0.76046,-0.79375 c 0.418254,-0.43656 0.67036,-0.79375 0.560236,-0.79375 -0.455357,0 -8.365372,2.48054 -8.364549,2.62308 5.02e-4,0.0853 0.923226,0.52443 2.05052,0.9759 l 2.049627,0.82085 0.937197,-0.887 0.937197,-0.88699 z m 33.088638,-4.22699 c 0.11707,-0.10667 -0.71625,-0.57236 -1.85182,-1.03486 l -2.06468,-0.84092 -0.66173,0.80481 -0.66172,0.80481 -7.540624,-6.3e-4 c -7.068722,-6.1e-4 -7.590298,0.0321 -8.334375,0.52258 l -0.79375,0.52323 7.630888,0.0703 7.630891,0.0703 -0.55329,0.7032 c -0.3043,0.38675 -0.55328,0.7586 -0.55328,0.82633 0,0.16321 7.4793,-2.1994 7.75349,-2.44922 z m -29.449324,-2.3876 c 0.620673,-0.48549 1.125358,-0.51776 8.185031,-0.52328 7.356449,-0.006 7.537175,-0.0187 8.135938,-0.58117 0.336801,-0.31641 0.612365,-0.6736 0.612365,-0.79375 0,-0.12016 -3.34694,-0.21846 -7.437644,-0.21846 -7.431048,0 -7.437091,-4.5e-4 -6.813021,-0.52037 0.343543,-0.2862 0.509934,-0.52432 0.369758,-0.52916 -0.480296,-0.0166 -8.079513,1.95863 -8.077236,2.09947 0.0029,0.17817 3.434386,1.52784 3.966476,1.56008 0.218281,0.0132 0.694531,-0.20879 1.058333,-0.49336 z m 37.793624,-4.89709 c 0.0531,-0.0531 -0.87881,-0.58695 -2.07092,-1.18634 l -2.16747,-1.08978 -0.77263,0.80848 -0.77262,0.80848 -7.47218,0.006 c -7.008668,0.006 -7.51321,0.038 -8.133637,0.52328 -0.660807,0.51689 -0.654042,0.51741 6.862517,0.52328 l 7.52398,0.006 -0.71095,0.74208 c -0.39103,0.40814 -0.71096,0.81138 -0.71096,0.89607 0,0.14858 8.2289,-1.84136 8.42487,-2.03733 z"
         id="path89"
         inkscape:connector-curvature="0" />
      <path
         style="fill:#116c98;stroke-width:0.26458332"
         d="m 48.708903,150.07531 v -9.26041 h 29.897917 29.89792 v 9.26041 9.26042 H 78.60682 48.708903 Z m 60.854167,-0.33211 v -9.32794 l 9.45885,-9.45647 9.45886,-9.45647 -0.13229,8.56922 -0.1323,8.56922 -9.21868,10.21519 c -5.07028,5.61836 -9.26723,10.2152 -9.32656,10.2152 -0.0593,0 -0.10788,-4.19758 -0.10788,-9.32795 z M 49.970428,139.06927 c 0.475558,-0.37478 5.767034,-4.65971 11.758837,-9.52206 l 10.894186,-8.84065 27.531789,0.0117 27.53179,0.0117 -9.65729,9.50397 -9.6573,9.50398 -29.633329,0.006 -29.633333,0.006 0.86465,-0.68142 z m 24.94338,-3.02529 c 5.841534,-0.007 7.633269,-0.0872 7.992491,-0.3599 0.254661,-0.19331 0.463021,-0.42765 0.463021,-0.52075 0,-0.0931 -3.356026,-0.16927 -7.457835,-0.16927 h -7.457834 l 0.777105,-0.83149 c 0.915281,-0.97934 1.256347,-1.02665 -4.175335,0.57918 -2.141759,0.63319 -3.831534,1.21382 -3.755056,1.2903 0.07648,0.0765 1.05492,0.51287 2.174315,0.96975 l 2.035265,0.8307 0.937197,-0.89005 0.937197,-0.89005 7.529469,-0.008 z m 30.210122,-3.22436 c 1.5603,-0.4937 2.89721,-0.95794 2.97092,-1.03165 0.0737,-0.0737 -0.83515,-0.53027 -2.0197,-1.01459 l -2.15371,-0.88058 -0.68492,0.83323 -0.68491,0.83322 -7.616078,-0.002 c -6.568006,-0.002 -7.705825,0.0564 -8.268229,0.42492 -0.358682,0.23502 -0.652221,0.50291 -0.652311,0.59531 -8.8e-5,0.0924 3.403867,0.13464 7.564345,0.0939 l 7.564503,-0.0742 -0.55288,0.77646 c -0.887392,1.24622 -1.323815,1.29952 4.53297,-0.55364 z m -18.514473,-3.91097 h 7.508778 l 0.76046,-0.79375 0.76046,-0.79375 -7.656272,-0.007 c -7.324355,-0.007 -7.624728,-0.0266 -6.928668,-0.45816 0.878026,-0.54438 0.958173,-0.96835 0.132292,-0.69982 -0.327422,0.10646 -2.321719,0.63677 -4.431771,1.17847 -3.623781,0.93031 -3.792456,1.00204 -3.042708,1.29401 0.436562,0.17 1.448594,0.58365 2.248958,0.91922 l 1.455209,0.61013 0.842242,-0.62466 c 0.838698,-0.62202 0.87384,-0.62465 8.35102,-0.62465 z m 25.731733,-3.33302 c 2.0373,-0.5231 3.75378,-0.9992 3.81442,-1.05799 0.15196,-0.14737 0.1467,-0.15046 -2.18057,-1.28221 l -2.07032,-1.00679 -0.85269,0.82646 -0.85269,0.82646 -7.39574,0.002 c -6.935033,0.002 -7.445184,0.0345 -8.189489,0.52742 l -0.79375,0.52568 7.656269,0.002 7.65627,0.002 -0.71095,0.74208 c -0.39103,0.40814 -0.71096,0.81372 -0.71096,0.90127 0,0.1864 -0.13219,0.21517 4.6302,-1.00762 z"
         id="path87"
         inkscape:connector-curvature="0" />
      <path
         style="fill:#006593;stroke-width:0.26458332"
         d="m 48.708903,150.07531 v -9.26041 h 29.897917 29.89792 v 9.26041 9.26042 H 78.60682 48.708903 Z m 59.531247,0 v -8.99583 H 78.60682 48.973486 v 8.99583 8.99584 h 29.633334 29.63333 z m 1.32292,-0.33211 v -9.32794 l 9.45885,-9.45647 9.45886,-9.45647 -0.13229,8.57295 -0.1323,8.57296 -9.22886,10.21146 c -5.07588,5.6163 -9.27283,10.21146 -9.32657,10.21146 -0.0537,0 -0.0977,-4.19758 -0.0977,-9.32795 z m 9.57669,-1.341 8.91524,-9.83626 0.0144,-8.20065 0.0145,-8.20064 -9.12812,9.12525 -9.12813,9.12524 v 9.10752 c 0,5.00913 0.0893,9.01938 0.19844,8.91166 0.10914,-0.10772 4.21029,-4.62218 9.11367,-10.03212 z M 52.841186,136.78 c 2.012902,-1.63711 7.292242,-5.92336 11.731866,-9.525 l 8.072046,-6.54844 27.520962,0.01 27.52097,0.01 -9.65729,9.50382 -9.6573,9.50383 -29.595536,0.0112 -29.595539,0.0112 z m 64.923964,-6.55597 9.39271,-9.24114 -27.255704,-0.006 -27.255706,-0.006 -11.108877,9.01205 c -6.109883,4.95663 -11.221988,9.12382 -11.360233,9.26042 -0.156641,0.15477 10.760279,0.24331 28.971875,0.23496 l 29.223225,-0.0134 z m -54.29047,7.04236 c -1.119395,-0.45689 -2.131426,-0.92691 -2.248958,-1.0445 -0.196216,-0.19631 1.175008,0.3012 3.44974,1.25164 0.894184,0.37362 0.928125,0.36373 1.784799,-0.52014 l 0.87328,-0.90099 h 7.498032 c 6.437003,0 7.599674,-0.0606 8.216326,-0.42828 l 0.718296,-0.42827 -0.661459,0.55468 c -0.637233,0.53437 -0.937207,0.5549 -8.190928,0.56057 l -7.529469,0.006 -0.937197,0.89005 -0.937197,0.89006 z m -1.801194,-1.74316 c 0.218282,-0.14106 0.575469,-0.24994 0.79375,-0.24194 0.261688,0.01 0.216625,0.092 -0.132291,0.24194 -0.727362,0.31256 -1.145108,0.31256 -0.661459,0 z m 2.116667,-0.66146 c 0.509323,-0.19614 1.104635,-0.35662 1.322917,-0.35662 0.218281,0 -0.01984,0.16048 -0.529167,0.35662 -0.509323,0.19614 -1.104635,0.35662 -1.322917,0.35662 -0.218281,0 0.01984,-0.16048 0.529167,-0.35662 z m 5.423958,-0.66146 c 0.903624,-0.94318 0.851651,-0.95159 -1.518174,-0.24583 -1.011894,0.30136 -1.88909,0.49864 -1.949323,0.4384 -0.196894,-0.19689 3.876631,-1.27455 4.158736,-1.1002 0.168301,0.10401 0.04578,0.41328 -0.316519,0.79892 l -0.591119,0.62922 7.251951,0.0749 7.251948,0.0749 -7.52398,0.0617 -7.52398,0.0617 z m 30.68093,0.24721 c -0.07895,-0.12774 0.05242,-0.53134 0.291929,-0.89689 l 0.43549,-0.66463 -7.23751,-0.0749 -7.237505,-0.0749 7.492494,-0.0617 7.492501,-0.0617 -0.54719,0.76845 c -0.724496,1.01746 -0.694305,1.1074 0.26008,0.7747 0.44399,-0.15478 0.8606,-0.22806 0.92581,-0.16285 0.0652,0.0652 -0.29794,0.24638 -0.80699,0.40262 -0.51856,0.15915 -0.988683,0.18192 -1.069109,0.0518 z m 2.259699,-0.59507 c 0,-0.16254 4.52713,-1.56319 4.65127,-1.43906 0.0545,0.0545 -0.7018,0.34973 -1.68075,0.656 -2.64566,0.8277 -2.97052,0.91333 -2.97052,0.78306 z m -15.742712,-1.87792 0.79375,-0.68201 7.689305,-0.001 7.689307,-0.001 0.58684,-0.79375 c 0.32277,-0.43656 0.68864,-0.79375 0.81305,-0.79375 0.12441,0 -0.1555,0.41672 -0.62202,0.92604 l -0.84822,0.92604 h -7.613287 c -7.270443,0 -7.650872,0.0248 -8.447881,0.55103 l -0.834594,0.55104 0.79375,-0.68201 z m 20.984762,0.19296 c 0.191,-0.0764 0.4192,-0.067 0.50712,0.0209 0.0879,0.0879 -0.0683,0.15045 -0.34726,0.13896 -0.30823,-0.0127 -0.37092,-0.0754 -0.15986,-0.15985 z m -0.34726,-1.0041 c -0.72761,-0.34276 -1.24349,-0.63311 -1.14642,-0.64522 0.27724,-0.0346 2.60163,1.00108 2.60163,1.1592 0,0.18153 0.0848,0.21149 -1.45521,-0.51398 z m -2.24896,-0.93183 c -0.21828,-0.14106 -0.27781,-0.25648 -0.13229,-0.25648 0.14552,0 0.44318,0.11542 0.66146,0.25648 0.21828,0.14107 0.27781,0.25648 0.13229,0.25648 -0.14552,0 -0.44318,-0.11541 -0.66146,-0.25648 z m -29.765625,-0.79375 c -1.018646,-0.42133 -1.723783,-0.77229 -1.566971,-0.7799 0.281384,-0.0137 3.580114,1.26258 3.793881,1.46781 0.27445,0.26349 -0.520234,0.018 -2.22691,-0.68791 z m 3.175,0.16531 0.79375,-0.67544 7.526147,-0.01 7.526147,-0.01 0.808228,-0.72761 0.808228,-0.7276 -0.777105,0.85989 -0.777105,0.8599 h -7.607801 c -4.759044,0 -7.668704,0.0985 -7.770444,0.26316 -0.08945,0.14474 -0.4239,0.39344 -0.743217,0.55267 -0.396198,0.19757 -0.328499,0.075 0.213172,-0.38594 z m -4.870068,-1.60114 c 0.191088,-0.19109 7.706195,-2.03394 7.822021,-1.91812 0.09608,0.0961 -7.289638,2.03104 -7.75245,2.03104 -0.100369,0 -0.131676,-0.0508 -0.06957,-0.11292 z m 7.606431,-1.1047 c 0.332832,-0.23312 0.676823,-0.35218 0.764426,-0.26458 0.0876,0.0876 -0.0094,0.18611 -0.215545,0.21891 -0.206156,0.0328 2.83986,0.12502 6.768922,0.20495 l 7.14375,0.14533 -7.533351,0.0596 c -6.975057,0.0552 -7.488502,0.0282 -6.928202,-0.36424 z m 26.603112,-0.15266 c -0.0871,-0.14102 0.11104,-0.54326 0.44042,-0.89387 l 0.59887,-0.63747 -7.11959,-0.0751 -7.119592,-0.0751 7.391692,-0.0616 7.39168,-0.0616 -0.75781,0.79099 c -0.4168,0.43504 -0.70697,0.83749 -0.64482,0.89432 0.0622,0.0568 0.70832,-0.0557 1.43592,-0.25015 1.48702,-0.39732 2.55048,-0.46585 1.32292,-0.0852 -1.77264,0.5496 -2.78436,0.70613 -2.93969,0.4548 z m 4.26261,-1.01097 c 0.29104,-0.12507 0.76729,-0.22389 1.05833,-0.21962 0.4254,0.006 0.39945,0.0493 -0.13229,0.21962 -0.90466,0.28972 -1.60026,0.28972 -0.92604,0 z m 1.93476,-0.44533 c 0.191,-0.0764 0.4192,-0.067 0.50712,0.0209 0.0879,0.0879 -0.0684,0.15045 -0.34726,0.13897 -0.30823,-0.0127 -0.37092,-0.0754 -0.15986,-0.15986 z m 1.24024,-0.34842 c 0.29104,-0.12507 0.70776,-0.22739 0.92604,-0.22739 0.25016,0 0.20125,0.0841 -0.13229,0.22739 -0.29104,0.12506 -0.70776,0.22739 -0.92604,0.22739 -0.25016,0 -0.20126,-0.0841 0.13229,-0.22739 z m -20.277462,-0.77255 c 0.601122,-0.52966 0.905388,-0.55037 8.086432,-0.55037 h 7.46182 l 0.76046,-0.79375 c 0.41825,-0.43656 0.85759,-0.79375 0.9763,-0.79375 0.11872,0 -0.24541,0.41672 -0.80917,0.92604 l -1.02502,0.92604 h -7.38354 c -6.277162,0 -7.481564,0.0627 -8.03772,0.41808 l -0.654185,0.41807 z m 21.203502,-0.0212 c -0.23847,-0.15411 -0.2711,-0.2581 -0.0818,-0.26054 0.17331,-0.002 0.3887,0.11502 0.47863,0.26054 0.20302,0.32848 0.11143,0.32848 -0.39687,0 z m -2.05747,-0.96663 c -0.76781,-0.38234 -1.35438,-0.7368 -1.30348,-0.7877 0.10814,-0.10814 2.83178,1.22023 2.83178,1.38112 0,0.16436 -0.0297,0.15281 -1.5283,-0.59342 z"
         id="path85"
         inkscape:connector-curvature="0" />
      <path
         style="fill:#005e8f;stroke-width:0.26458332"
         d="m 70.867757,136.11915 c 2.073672,-0.0447 5.466953,-0.0447 7.540625,0 2.073672,0.0447 0.377031,0.0813 -3.770312,0.0813 -4.147344,0 -5.843985,-0.0366 -3.770313,-0.0813 z m 45.971353,-2.97717 c 0.26339,-0.29104 0.53842,-0.52917 0.61118,-0.52917 0.0728,0 -0.0832,0.23813 -0.3466,0.52917 -0.26339,0.29104 -0.53842,0.52917 -0.61118,0.52917 -0.0728,0 0.0832,-0.23813 0.3466,-0.52917 z m 3.43958,-3.43958 c 0.26339,-0.29105 0.53843,-0.52917 0.61119,-0.52917 0.0728,0 -0.0832,0.23812 -0.3466,0.52917 -0.26339,0.29104 -0.53842,0.52916 -0.61118,0.52916 -0.0728,0 0.0832,-0.23812 0.34659,-0.52916 z m 2.51355,-2.46404 c 0,-0.0455 0.38695,-0.43249 0.85989,-0.8599 l 0.8599,-0.77711 -0.77711,0.8599 c -0.72437,0.80154 -0.94268,0.98151 -0.94268,0.77711 z m 3.43958,-3.43959 c 0,-0.0455 0.38695,-0.43249 0.8599,-0.85989 l 0.85989,-0.77711 -0.7771,0.8599 c -0.72437,0.80154 -0.94269,0.98151 -0.94269,0.7771 z m -40.018229,-3.02601 c 7.603463,-0.039 20.045499,-0.039 27.648959,0 7.60346,0.039 1.38245,0.0709 -13.82448,0.0709 -15.206927,0 -21.427943,-0.0319 -13.824479,-0.0709 z"
         id="path83"
         inkscape:connector-curvature="0" />
    </g>
  </g>
</svg>
